<svg width="32" height="32" viewBox="0 0 32 32" fill="none" xmlns="http://www.w3.org/2000/svg">
<g id="Arrow">
<path id="icon" d="M14.6663 5.33333L14.6663 26.6667C14.6663 27.3918 15.2745 28 15.9997 28C16.7248 28 17.333 27.3918 17.333 26.6667V5.33333C17.333 4.60818 16.7248 4 15.9997 4C15.2745 4 14.6663 4.60818 14.6663 5.33333ZM24.3973 16.3977L15.2044 25.5906C14.9003 25.8947 17.0991 25.8947 16.795 25.5906L7.60201 16.3977C7.3681 16.1404 7.04061 16 6.66634 16C5.94119 16 5.33301 16.6082 5.33301 17.3333C5.33301 17.7076 5.47336 18.0351 5.73067 18.269L14.9237 27.462C15.5084 28.0702 16.4909 28.0702 17.0757 27.462L26.2687 18.269C26.526 18.0351 26.6663 17.7076 26.6663 17.3333C26.6663 16.6082 26.0582 16 25.333 16C24.9587 16 24.6313 16.1404 24.3973 16.3977Z" fill="#100F0F"/>
</g>
</svg>
